<?xml version="1.0" encoding="utf-8"?>
<!-- Generator: Adobe Illustrator 22.0.0, SVG Export Plug-In . SVG Version: 6.00 Build 0)  -->
<svg version="1.1" id="Layer_1" xmlns="http://www.w3.org/2000/svg" xmlns:xlink="http://www.w3.org/1999/xlink" x="0px" y="0px"
	 viewBox="0 0 1076.7 210" style="enable-background:new 0 0 1076.7 210;" xml:space="preserve">
<style type="text/css">
	.st0{display:none;}
	.st1{display:inline;}
	.st2{fill:#FFFFFF;}
	.st3{display:inline;fill:#03BFB5;}
	.st4{display:inline;fill:#FFFFFF;}
	.st5{display:none;opacity:0.52;fill:#20FC00;enable-background:new    ;}
	.st6{display:none;fill:#B3B3B3;}
	.st7{fill:#03BFB5;}
	.st8{fill:#F2F2F2;}
	.st9{display:none;fill:#F2F2F2;enable-background:new    ;}
	.st10{font-family:'Ubuntu-Bold';}
	.st11{font-size:236.6083px;}
	.st12{letter-spacing:22.7;}
	.st13{font-family:'Ubuntu-Regular';}
	.st14{font-size:95px;}
	.st15{letter-spacing:17.7;}
	.st16{display:inline;fill:#FFFF00;}
</style>
<g id="Layer_1_1_" class="st0">
	<g id="White" class="st1">
		<rect x="-59.8" y="-604.2" class="st2" width="118.4" height="118.4"/>
		<path class="st2" d="M210.8-584.2v230.6c0,11-9,20-20,20H-59.8V-452H79.7c7,0,12.7-5.7,12.7-12.7v-139.5h98.4
			C201.8-604.2,210.8-595.2,210.8-584.2z"/>
		<g>
			<path class="st2" d="M-172.9-299.7h26.7c8.7,0.2,13.1,4.7,13.3,13.3l0.1,35.9c-0.2,8.5-4.6,12.8-13.4,13h-39.9v-62.2h8.8v53.3
				h29.3c4.1,0,6.2-2.1,6.2-6.4v-31.1c-0.1-4.9-2.3-7.2-6.5-6.9h-24.6V-299.7z"/>
			<path class="st2" d="M-115.1-273.2v-8.8H-84c8.9,0,13.3,4.3,13.4,13v31.4h-36.6c-8.2,0-12.3-3.7-12.3-11.1v-6.1
				c0-7.5,3.8-11.3,11.3-11.3h23.5v8.9h-19.6c-4.3,0-6.4,1.7-6.4,5.2l0,0c0,3.7,2,5.5,5.9,5.5h25.2v-19.7c0-4.7-2-7-6-7
				L-115.1-273.2L-115.1-273.2z"/>
			<path class="st2" d="M-51.4-237.6h-8.9v-44.5h35.6c8.9,0.1,13.4,4.5,13.4,13.4v31.1h-9v-29.8c-0.1-3.8-2.1-5.7-5.9-5.8h-25.2
				L-51.4-237.6L-51.4-237.6z"/>
			<path class="st2" d="M9.7-290.6H0.6v-9.1h9.1V-290.6z M0.7-282.3h9v44.8h-9V-282.3z"/>
			<path class="st2" d="M20.1-299.8H29v62.2h-8.9V-299.8z"/>
			<path class="st2" d="M88.4-268.7v20.1c0,7.3-4.5,11-13.5,11H52.6c-8.9-0.1-13.3-3.9-13.3-11.4v-19.8c0.1-8.9,4.6-13.3,13.4-13.3
				h22.2C83.8-282,88.3-277.6,88.4-268.7z M73.7-273.2H54c-3.9,0-5.8,1.9-5.9,5.7v16.6c0,3,2.5,4.5,7.7,4.5h17.5c4,0,6-1.1,6-3.3
				v-17.7C79.4-271.2,77.5-273.1,73.7-273.2z"/>
			<path class="st2" d="M138.6-252.7v-47h8.8v48.9c0,8.9-4.5,13.3-13.4,13.3H98.7v-8.8h33.6C136.5-246.4,138.6-248.5,138.6-252.7z"
				/>
			<path class="st2" d="M209.9-268.7v20.1c0,7.3-4.5,11-13.5,11h-22.3c-8.9-0.1-13.3-3.9-13.3-11.4v-19.8
				c0.1-8.9,4.6-13.3,13.4-13.3h22.2C205.3-282,209.8-277.6,209.9-268.7z M195.2-273.2h-19.7c-3.9,0-5.8,1.9-5.9,5.7v16.6
				c0,3,2.5,4.5,7.7,4.5h17.5c4,0,6-1.1,6-3.3v-17.7C200.9-271.2,199-273.1,195.2-273.2z"/>
			<path class="st2" d="M268.9-273.3h-35.2c-2.9,0-4.4,1.5-4.4,4.4c0,3,1.5,4.5,4.4,4.5h22.1c8.9,0,13.3,3.8,13.4,11.4v4.4
				c-0.1,7.4-4.7,11.1-13.6,11.1h-35.1v-8.8h34c3.7,0,5.6-1.7,5.8-4.9c0-2.7-1.9-4-5.7-4.1h-20.9c-8.9,0-13.3-3.6-13.4-10.9v-4.5
				c0-7.5,4.5-11.2,13.4-11.2h35.2V-273.3z"/>
			<path class="st2" d="M324.4-246.4v8.9h-33.6c-8.8-0.1-13.3-4.4-13.3-13.1v-18c0-8.9,4.4-13.3,13.3-13.3h22.3
				c8.8,0.1,13.3,3.8,13.3,11.1v13.9h-35.2v-9.1h26.2v-3.7c0-2.2-1.5-3.3-4.4-3.3h-19.9c-4.5,0-6.8,2.1-6.8,6.4v13.8
				c0,4.4,2,6.6,6,6.6h32.1V-246.4z"/>
		</g>
		
			<text transform="matrix(1 0 0 1 -180.6094 -181.4202)" class="st2" style="font-family:'Adam-Medium'; font-size:32.9px; letter-spacing:30;">dejota</text>
		
			<text transform="matrix(1 0 0 1 131.3477 -181.4202)" class="st2" style="font-family:'Adam-Medium'; font-size:47px; letter-spacing:43;"> </text>
		
			<text transform="matrix(1 0 0 1 196.5361 -181.4202)" class="st2" style="font-family:'Adam-Medium'; font-size:32.9px; letter-spacing:30;">lab</text>
		<rect x="286.3" y="-299.8" class="st2" width="31.1" height="9.1"/>
	</g>
	<g id="Black" class="st1">
		<rect x="-66.9" y="366.2" width="118.4" height="118.4"/>
		<path d="M203.7,386.2v230.6c0,11-9,20-20,20H-66.9V518.4H72.6c7,0,12.7-5.7,12.7-12.7V366.2h98.4
			C194.7,366.2,203.7,375.2,203.7,386.2z"/>
		<g>
			<path d="M-180,670.7h26.7c8.7,0.2,13.1,4.7,13.3,13.3l0.1,35.9c-0.2,8.5-4.6,12.8-13.4,13h-39.9v-62.2h8.8V724h29.3
				c4.1,0,6.2-2.1,6.2-6.4v-31.1c-0.1-4.9-2.3-7.2-6.5-6.9H-180C-180,679.6-180,670.7-180,670.7z"/>
			<path d="M-122.1,697.2v-8.8H-91c8.9,0,13.3,4.3,13.4,13v31.4h-36.7c-8.2,0-12.3-3.7-12.3-11.1v-6.1c0-7.5,3.8-11.3,11.3-11.3
				h23.5v8.9h-19.5c-4.3,0-6.4,1.7-6.4,5.2l0,0c0,3.7,2,5.5,5.9,5.5h25.2v-19.7c0-4.7-2-7-6-7L-122.1,697.2L-122.1,697.2z"/>
			<path d="M-58.5,732.8h-8.9v-44.5h35.6c8.9,0.1,13.4,4.5,13.4,13.4v31.1h-9V703c-0.1-3.8-2.1-5.7-5.9-5.8h-25.2V732.8z"/>
			<path d="M2.6,679.8h-9.1v-9.1h9.1V679.8z M-6.4,688.1h9v44.8h-9V688.1z"/>
			<path d="M13.1,670.6H22v62.2h-8.9V670.6z"/>
			<path d="M81.3,701.7v20.1c0,7.3-4.5,11-13.5,11H45.5c-8.9-0.1-13.3-3.9-13.3-11.4v-19.7c0.1-8.9,4.6-13.3,13.4-13.3h22.2
				C76.7,688.4,81.2,692.8,81.3,701.7z M66.7,697.2H47c-3.9,0-5.8,1.9-5.9,5.7v16.6c0,3,2.5,4.5,7.7,4.5h17.5c4,0,6-1.1,6-3.3V703
				C72.3,699.2,70.4,697.3,66.7,697.2z"/>
			<path d="M131.6,717.7v-47h8.8v48.9c0,8.9-4.5,13.3-13.4,13.3H91.6v-8.8h33.6C129.4,724,131.5,721.9,131.6,717.7z"/>
			<path d="M202.8,701.7v20.1c0,7.3-4.5,11-13.5,11H167c-8.9-0.1-13.3-3.9-13.3-11.4v-19.7c0.1-8.9,4.6-13.3,13.4-13.3h22.2
				C198.2,688.4,202.7,692.8,202.8,701.7z M188.2,697.2h-19.7c-3.9,0-5.8,1.9-5.9,5.7v16.6c0,3,2.5,4.5,7.7,4.5h17.5
				c4,0,6-1.1,6-3.3V703C193.8,699.2,191.9,697.3,188.2,697.2z"/>
			<path d="M261.8,697.1h-35.2c-2.9,0-4.4,1.5-4.4,4.4c0,3,1.5,4.5,4.4,4.5h22.1c8.9,0,13.3,3.8,13.4,11.4v4.4
				c-0.1,7.4-4.7,11.1-13.6,11.1h-35.1v-8.8h34c3.7,0,5.6-1.7,5.8-4.9c0-2.7-1.9-4-5.7-4.1h-20.7c-8.9,0-13.3-3.6-13.4-10.9v-4.5
				c0-7.5,4.5-11.2,13.4-11.2H262v8.6H261.8z"/>
			<path d="M317.3,724v8.9h-33.6c-8.8-0.1-13.3-4.4-13.3-13.1v-18c0-8.9,4.4-13.3,13.3-13.3H306c8.8,0.1,13.3,3.8,13.3,11.1v13.9
				h-35.2v-9.1h26.2v-3.7c0-2.2-1.5-3.3-4.4-3.3H286c-4.5,0-6.8,2.1-6.8,6.3v13.8c0,4.4,2,6.6,6,6.6h32.1V724z"/>
		</g>
		<text transform="matrix(1 0 0 1 -187.6831 788.9807)" style="font-family:'Adam-Medium'; font-size:32.9px; letter-spacing:30;">dejota</text>
		<text transform="matrix(1 0 0 1 124.2739 788.9808)" style="font-family:'Adam-Medium'; font-size:47px; letter-spacing:43;"> </text>
		<text transform="matrix(1 0 0 1 189.4624 788.9807)" style="font-family:'Adam-Medium'; font-size:32.9px; letter-spacing:30;">lab</text>
		<rect x="279.3" y="670.6" width="31.1" height="9.1"/>
	</g>
	<rect x="922.3" y="-599" class="st3" width="118.4" height="118.4"/>
	<path class="st3" d="M1192.9-579v230.6c0,11-9,20-20,20H922.3v-118.4h139.5c7,0,12.7-5.7,12.7-12.7V-599h98.4
		C1184-599,1192.9-590,1192.9-579z"/>
	<g class="st1">
		<path d="M809.3-294.5H836c8.7,0.2,13.1,4.7,13.3,13.3l0.1,35.9c-0.2,8.5-4.6,12.8-13.4,13h-39.9v-62.2h8.8v53.3h29.3
			c4.1,0,6.2-2.1,6.2-6.4v-31.1c-0.1-4.9-2.3-7.2-6.5-6.9h-24.6V-294.5z"/>
		<path d="M867.1-268v-8.8h31.1c8.9,0,13.3,4.3,13.4,13v31.4H875c-8.2,0-12.3-3.7-12.3-11.1v-6.1c0-7.5,3.8-11.3,11.3-11.3h23.5v8.9
			h-19.6c-4.3,0-6.4,1.7-6.4,5.2l0,0c0,3.7,2,5.5,5.9,5.5h25.2V-261c0-4.7-2-7-6-7L867.1-268L867.1-268z"/>
		<path d="M930.8-232.4h-8.9v-44.5h35.6c8.9,0.1,13.4,4.5,13.4,13.4v31.1h-9v-29.8c-0.1-3.8-2.1-5.7-5.9-5.8h-25.2V-232.4z"/>
		<path d="M991.9-285.4h-9.1v-9.1h9.1V-285.4z M982.8-277.1h9v44.8h-9V-277.1z"/>
		<path d="M1002.3-294.6h8.9v62.2h-8.9V-294.6z"/>
		<path d="M1070.6-263.5v20.1c0,7.3-4.5,11-13.5,11h-22.3c-8.9-0.1-13.3-3.9-13.3-11.4v-19.8c0.1-8.9,4.6-13.3,13.4-13.3h22.2
			C1066-276.8,1070.5-272.4,1070.6-263.5z M1055.9-268h-19.7c-3.9,0-5.8,1.9-5.9,5.7v16.6c0,3,2.5,4.5,7.7,4.5h17.5c4,0,6-1.1,6-3.3
			v-17.8C1061.6-266,1059.7-267.9,1055.9-268z"/>
		<path d="M1120.8-247.5v-47h8.8v48.9c0,8.9-4.5,13.3-13.4,13.3h-35.4v-8.8h33.6C1118.6-241.2,1120.7-243.3,1120.8-247.5z"/>
		<path d="M1192-263.5v20.1c0,7.3-4.5,11-13.5,11h-22.3c-8.9-0.1-13.3-3.9-13.3-11.4v-19.8c0.1-8.9,4.6-13.3,13.4-13.3h22.2
			C1187.5-276.8,1192-272.4,1192-263.5z M1177.4-268h-19.7c-3.9,0-5.8,1.9-5.9,5.7v16.6c0,3,2.5,4.5,7.7,4.5h17.5c4,0,6-1.1,6-3.3
			v-17.8C1183.1-266,1181.2-267.9,1177.4-268z"/>
		<path d="M1251.1-268.1h-35.2c-2.9,0-4.4,1.5-4.4,4.4c0,3,1.5,4.5,4.4,4.5h22.1c8.9,0,13.3,3.8,13.4,11.4v4.4
			c-0.1,7.4-4.7,11.1-13.6,11.1h-35.1v-8.8h34c3.7,0,5.6-1.7,5.8-4.9c0-2.7-1.9-4-5.7-4.1h-20.7c-8.9,0-13.3-3.6-13.4-10.9v-4.5
			c0-7.5,4.5-11.2,13.4-11.2h35.2v8.6H1251.1z"/>
		<path d="M1306.6-241.2v8.9H1273c-8.8-0.1-13.3-4.4-13.3-13.1v-18c0-8.9,4.4-13.3,13.3-13.3h22.3c8.8,0.1,13.3,3.8,13.3,11.1v13.9
			h-35.2v-9.1h26.2v-3.7c0-2.2-1.5-3.3-4.4-3.3h-19.9c-4.5,0-6.8,2.1-6.8,6.4v13.8c0,4.4,2,6.6,6,6.6h32.1V-241.2z"/>
	</g>
	
		<text transform="matrix(0.9704 0 0 1 1273.2651 -284.033)" class="st1" style="font-family:'Anita--Semi-square'; font-size:44px;">_</text>
	
		<text transform="matrix(1 0 0 1 801.5532 -176.2195)" class="st3" style="font-family:'Adam-Medium'; font-size:32.9px; letter-spacing:30;">dejota</text>
	
		<text transform="matrix(1 0 0 1 1113.5109 -176.2194)" class="st3" style="font-family:'Adam-Medium'; font-size:47px; letter-spacing:43;"> </text>
	
		<text transform="matrix(1 0 0 1 1178.6997 -176.2195)" class="st3" style="font-family:'Adam-Medium'; font-size:32.9px; letter-spacing:30;">lab</text>
	<rect x="1268.5" y="-294.6" class="st1" width="31.1" height="9.1"/>
	<rect x="915.2" y="371.4" class="st3" width="118.4" height="118.4"/>
	<path class="st3" d="M1185.9,391.4V622c0,11-9,20-20,20H915.3V523.6h139.5c7,0,12.7-5.7,12.7-12.7V371.4h98.4
		C1176.9,371.4,1185.9,380.4,1185.9,391.4z"/>
	<text transform="matrix(1 0 0 1 788.8854 737.9952)" class="st3" style="font-family:'Anita--Semi-square'; font-size:86.7px;">DaniloJose</text>
	
		<text transform="matrix(1 0 0 1 794.4799 794.1814)" class="st3" style="font-family:'Adam-Medium'; font-size:32.9px; letter-spacing:30;">dejota</text>
	
		<text transform="matrix(1 0 0 1 1106.4371 794.1814)" class="st3" style="font-family:'Adam-Medium'; font-size:47px; letter-spacing:43;"> </text>
	
		<text transform="matrix(1 0 0 1 1171.6255 794.1814)" class="st3" style="font-family:'Adam-Medium'; font-size:32.9px; letter-spacing:30;">lab</text>
	<rect x="1261.4" y="675.8" class="st3" width="31.1" height="9.1"/>
	<rect x="915.2" y="371.4" class="st3" width="118.4" height="118.4"/>
	<path class="st3" d="M1185.9,391.4V622c0,11-9,20-20,20H915.3V523.6h139.5c7,0,12.7-5.7,12.7-12.7V371.4h98.4
		C1176.9,371.4,1185.9,380.4,1185.9,391.4z"/>
	<g class="st1">
		<path class="st2" d="M802.2,675.9h26.7c8.7,0.2,13.1,4.7,13.3,13.3l0.1,35.9c-0.2,8.5-4.6,12.8-13.4,13H789v-62.2h8.8v53.3h29.3
			c4.1,0,6.2-2.1,6.2-6.4v-31.1c-0.1-4.9-2.3-7.2-6.5-6.9h-24.6V675.9z"/>
		<path class="st2" d="M860,702.4v-8.8h31.1c8.9,0,13.3,4.3,13.4,13V738h-36.6c-8.2,0-12.3-3.7-12.3-11.1v-6.1
			c0-7.5,3.8-11.3,11.3-11.3h23.5v8.9h-19.6c-4.3,0-6.4,1.7-6.4,5.2l0,0c0,3.7,2,5.5,5.9,5.5h25.2v-19.7c0-4.7-2-7-6-7L860,702.4
			L860,702.4z"/>
		<path class="st2" d="M923.7,738h-8.9v-44.5h35.6c8.9,0.1,13.4,4.5,13.4,13.4V738h-9v-29.8c-0.1-3.8-2.1-5.7-5.9-5.8h-25.2V738z"/>
		<path class="st2" d="M984.8,685h-9.1v-9.1h9.1V685z M975.8,693.3h9v44.8h-9V693.3z"/>
		<path class="st2" d="M995.2,675.8h8.9V738h-8.9V675.8z"/>
		<path class="st2" d="M1063.5,706.9V727c0,7.3-4.5,11-13.5,11h-22.3c-8.9-0.1-13.3-3.9-13.3-11.4v-19.8c0.1-8.9,4.6-13.3,13.4-13.3
			h22.2C1058.9,693.6,1063.4,698,1063.5,706.9z M1048.8,702.4h-19.7c-3.9,0-5.8,1.9-5.9,5.7v16.6c0,3,2.5,4.5,7.7,4.5h17.5
			c4,0,6-1.1,6-3.3v-17.7C1054.5,704.4,1052.6,702.5,1048.8,702.4z"/>
		<path class="st2" d="M1113.7,722.9v-47h8.8v48.8c0,8.9-4.5,13.3-13.4,13.3h-35.4v-8.8h33.6
			C1111.5,729.2,1113.7,727.1,1113.7,722.9z"/>
		<path class="st2" d="M1185,706.9V727c0,7.3-4.5,11-13.5,11h-22.3c-8.9-0.1-13.3-3.9-13.3-11.4v-19.8c0.1-8.9,4.6-13.3,13.4-13.3
			h22.2C1180.4,693.6,1184.9,698,1185,706.9z M1170.3,702.4h-19.7c-3.9,0-5.8,1.9-5.9,5.7v16.6c0,3,2.5,4.5,7.7,4.5h17.5
			c4,0,6-1.1,6-3.3v-17.7C1176,704.4,1174.1,702.5,1170.3,702.4z"/>
		<path class="st2" d="M1244,702.3h-35.2c-2.9,0-4.4,1.5-4.4,4.4c0,3,1.5,4.5,4.4,4.5h22.1c8.9,0,13.3,3.8,13.4,11.4v4.4
			c-0.1,7.4-4.7,11.1-13.6,11.1h-35.1v-8.8h34c3.7,0,5.6-1.7,5.8-4.9c0-2.7-1.9-4-5.7-4.1H1209c-8.9,0-13.3-3.6-13.4-10.9v-4.5
			c0-7.5,4.5-11.2,13.4-11.2h35.2v8.6H1244z"/>
		<path class="st2" d="M1299.5,729.2v8.9h-33.6c-8.8-0.1-13.3-4.4-13.3-13.1v-18c0-8.9,4.4-13.3,13.3-13.3h22.3
			c8.8,0.1,13.3,3.8,13.3,11.1v13.9h-35.2v-9.1h26.2v-3.7c0-2.2-1.5-3.3-4.4-3.3h-19.9c-4.5,0-6.8,2.1-6.8,6.4v13.8
			c0,4.4,2,6.6,6,6.6h32.1V729.2z"/>
	</g>
	
		<text transform="matrix(1 0 0 1 794.4799 794.1814)" class="st3" style="font-family:'Adam-Medium'; font-size:32.9px; letter-spacing:30;">dejota</text>
	
		<text transform="matrix(1 0 0 1 1106.4371 794.1814)" class="st3" style="font-family:'Adam-Medium'; font-size:47px; letter-spacing:43;"> </text>
	
		<text transform="matrix(1 0 0 1 1171.6255 794.1814)" class="st3" style="font-family:'Adam-Medium'; font-size:32.9px; letter-spacing:30;">lab</text>
	<rect x="1261.4" y="675.8" class="st4" width="31.1" height="9.1"/>
	<g id="Guias" class="st1">
		<rect x="-14.8" y="-237.6" class="st5" width="53.6" height="33.8"/>
	</g>
</g>
<g id="Layer_2_1_">
	<rect x="-395.8" y="-856.4" class="st6" width="1920" height="1920"/>
	<g id="White_copy">
		<g>
			<rect class="st7" width="91.3" height="91.3"/>
			<path class="st8" d="M208.6,91.3v26.1c0,50.4-40.9,91.3-91.3,91.3H0v-91.3h107.6c5.4,0,9.8-4.4,9.8-9.8V0l0,0
				C167.8,0,208.6,40.9,208.6,91.3z"/>
		</g>
		<text transform="matrix(1.0148 0 0 1 49.2715 123.1501)" class="st9 st10 st11 st12">DejotaTur</text>
		<text transform="matrix(1.0148 0 0 1 299.7007 251.5325)" class="st9 st13 st14 st15">programar. viajar.</text>
		<g>
			<path class="st8" d="M331.3,64.1c0,9.1-1.4,17-4.3,23.7c-2.9,6.8-6.9,12.3-12.2,16.8c-5.2,4.4-11.7,7.7-19.2,10
				c-7.5,2.2-16,3.3-25.5,3.3c-4.3,0-9.3-0.2-15-0.5c-5.8-0.4-11.4-1.1-16.9-2.2v-102c5.5-1,11.2-1.7,17.3-2s11.1-0.5,15.4-0.5
				c9.1,0,17.4,1,24.8,3c7.4,2,13.8,5.2,19.1,9.5c5.3,4.3,9.4,9.9,12.3,16.6C329.9,46.6,331.3,54.7,331.3,64.1z M262.1,97.4
				c1.1,0.1,2.4,0.2,3.9,0.3c1.5,0.1,3.3,0.1,5.3,0.1c11.9,0,20.8-3,26.6-8.9c5.8-5.9,8.7-14.2,8.7-24.7c0-11-2.7-19.3-8.3-24.9
				c-5.5-5.6-14.2-8.5-26.3-8.5c-1.7,0-3.3,0-5,0.1c-1.7,0.1-3.4,0.2-4.9,0.4V97.4z"/>
			<path class="st8" d="M361.2,77.4c0-7,1.1-13.2,3.3-18.5c2.2-5.3,5.1-9.7,8.7-13.2c3.6-3.5,7.7-6.2,12.3-8
				c4.7-1.8,9.5-2.7,14.4-2.7c11.4,0,20.5,3.5,27.2,10.4c6.6,6.9,10,17.1,10,30.5c0,1.3-0.1,2.7-0.1,4.3c-0.1,1.5-0.2,2.9-0.3,4.2
				h-51.9c0.5,4.7,2.7,8.3,6.6,11.1s9.1,4.1,15.7,4.1c4.2,0,8.3-0.4,12.3-1.2c4-0.8,7.3-1.7,9.9-2.8l3.1,18.3
				c-1.2,0.6-2.9,1.2-4.9,1.8c-2,0.6-4.3,1.2-6.8,1.6s-5.2,0.8-8.1,1.2c-2.9,0.3-5.8,0.4-8.6,0.4c-7.3,0-13.6-1.1-19-3.2
				c-5.4-2.1-9.8-5-13.4-8.7c-3.5-3.7-6.1-8.1-7.8-13.1C362,88.7,361.2,83.3,361.2,77.4z M414.9,68.8c-0.1-1.9-0.4-3.8-1-5.6
				c-0.6-1.8-1.4-3.5-2.6-4.9c-1.1-1.4-2.7-2.6-4.5-3.5s-4-1.3-6.6-1.3c-2.6,0-4.7,0.4-6.6,1.3c-1.9,0.8-3.4,2-4.6,3.4
				c-1.2,1.4-2.2,3.1-2.8,4.9c-0.6,1.9-1.2,3.8-1.5,5.7H414.9z"/>
			<path class="st8" d="M462.4,144.6c-1.4,0-3.6-0.1-6.4-0.4s-5.4-0.8-7.9-1.7l3.1-18.3c1.5,0.5,2.9,0.8,4.2,1.1
				c1.3,0.2,2.9,0.3,4.9,0.3c3.6,0,6.1-1.1,7.5-3.2c1.4-2.1,2.2-5.2,2.2-9.2V37.1h22.9v76.7c0,10.5-2.6,18.2-7.8,23.3
				C479.7,142,472.3,144.6,462.4,144.6z M494.9,14.1c0,4.2-1.3,7.4-4.1,9.8c-2.7,2.4-5.9,3.6-9.6,3.6c-3.7,0-6.9-1.2-9.6-3.6
				c-2.7-2.4-4.1-5.6-4.1-9.8s1.3-7.4,4.1-9.8c2.7-2.4,5.9-3.6,9.6-3.6c3.7,0,6.9,1.2,9.6,3.6C493.6,6.7,494.9,10,494.9,14.1z"/>
			<path class="st8" d="M605.1,76.7c0,6.3-0.9,11.9-2.7,17.2c-1.9,5.2-4.5,9.6-8,13.3c-3.5,3.7-7.7,6.5-12.5,8.6s-10.3,3-16.4,3
				c-5.9,0-11.3-1-16.2-3c-4.9-2-9-4.9-12.5-8.6c-3.5-3.7-6.2-8.1-8.1-13.3c-1.9-5.2-2.9-10.9-2.9-17.2c0-6.3,1-11.9,3-17.1
				c2-5.1,4.7-9.5,8.3-13.2c3.5-3.6,7.7-6.5,12.6-8.5c4.9-2,10.2-3,15.9-3c5.8,0,11.2,1,16,3c4.9,2,9,4.9,12.5,8.5
				c3.5,3.6,6.2,8,8.1,13.2C604.1,64.7,605.1,70.5,605.1,76.7z M581.8,76.7c0-7-1.4-12.4-4.2-16.4c-2.8-4-6.8-5.9-12-5.9
				s-9.3,2-12.1,5.9s-4.3,9.5-4.3,16.4c0,7,1.4,12.5,4.3,16.5c2.9,4.1,6.9,6.1,12.1,6.1c5.2,0,9.2-2,12-6.1
				C580.4,89.2,581.8,83.6,581.8,76.7z"/>
			<path class="st8" d="M637.3,17.3l22.9-3.6v23.4h27.5v18.7h-27.5v28c0,4.7,0.8,8.5,2.6,11.3c1.7,2.8,5.1,4.2,10.2,4.2
				c2.4,0,5-0.3,7.6-0.7c2.6-0.4,5-1.1,7.2-1.9l3.2,17.5c-2.7,1.1-5.8,2-9.2,2.9c-3.4,0.8-7.5,1.2-12.4,1.2
				c-6.3,0-11.4-0.8-15.5-2.5c-4.1-1.7-7.3-4-9.8-7c-2.4-3-4.2-6.6-5.1-10.8c-1-4.2-1.5-8.9-1.5-14.1L637.3,17.3L637.3,17.3z"/>
			<path class="st8" d="M747.4,34.9c6.8,0,12.4,0.8,16.9,2.2c4.5,1.5,8.1,3.7,10.8,6.5c2.7,2.8,4.6,6.3,5.8,10.3
				c1.2,4,1.7,8.5,1.7,13.5v46.8c-3.3,0.7-7.8,1.5-13.7,2.5c-5.8,1-12.9,1.4-21.1,1.4c-5.2,0-10-0.4-14.2-1.3
				c-4.2-0.9-7.9-2.4-11-4.5c-3.1-2-5.4-4.8-7-8.1c-1.7-3.3-2.4-7.4-2.4-12.3c0-4.7,1-8.6,2.8-11.8c1.9-3.2,4.4-5.8,7.6-7.7
				c3.2-1.9,6.8-3.3,10.9-4.2c4.1-0.8,8.3-1.3,12.7-1.3c2.9,0,5.6,0.1,7.9,0.4s4.2,0.6,5.6,1v-2.1c0-3.8-1.2-6.9-3.5-9.2
				c-2.4-2.3-6.5-3.5-12.3-3.5c-3.9,0-7.7,0.3-11.5,0.8s-7,1.3-9.8,2.4l-2.9-18.1c1.3-0.4,3-0.8,5-1.3c2-0.4,4.2-0.8,6.5-1.2
				c2.4-0.4,4.9-0.6,7.4-0.9C742.1,35.1,744.8,34.9,747.4,34.9z M749.3,100.9c2.2,0,4.4-0.1,6.5-0.1c2-0.1,3.7-0.3,4.9-0.4V83.2
				c-0.9-0.2-2.3-0.4-4.2-0.6c-1.9-0.2-3.5-0.3-5-0.3c-2.2,0-4.2,0.1-6.1,0.4c-1.9,0.3-3.6,0.7-5,1.4c-1.4,0.7-2.6,1.7-3.4,2.9
				c-0.8,1.2-1.2,2.7-1.2,4.5c0,3.5,1.2,5.9,3.6,7.3C741.8,100.2,745.1,100.9,749.3,100.9z"/>
			<path class="st8" d="M899,11.8v20.1h-32v84.7h-24V31.9h-32.1V11.8H899z"/>
			<path class="st8" d="M986.4,113.9c-3.9,1.1-8.9,2.2-15,3.1c-6.1,1-12.6,1.4-19.4,1.4c-6.8,0-12.6-0.9-17.1-2.7
				c-4.5-1.8-8.2-4.3-10.8-7.6c-2.7-3.3-4.5-7.2-5.7-11.7c-1.2-4.5-1.7-9.5-1.7-15V37.1h22.9v41.6c0,7.3,1,12.5,2.9,15.7
				c1.9,3.2,5.6,4.9,10.9,4.9c1.7,0,3.4-0.1,5.2-0.3c1.9-0.1,3.5-0.3,4.9-0.5V37.1h22.9L986.4,113.9L986.4,113.9z"/>
			<path class="st8" d="M1071.9,57.1c-2-0.5-4.5-1-7.2-1.6c-2.7-0.6-5.8-0.8-8.9-0.8c-1.4,0-3.1,0.1-5.1,0.4c-2,0.3-3.5,0.5-4.5,0.8
				v60.8h-22.9V41.3c4.1-1.4,8.9-2.7,14.5-4c5.6-1.3,11.8-1.9,18.7-1.9c1.2,0,2.7,0.1,4.5,0.3c1.7,0.1,3.4,0.4,5.2,0.6
				c1.7,0.3,3.4,0.6,5.2,0.9c1.7,0.4,3.2,0.8,4.5,1.3L1071.9,57.1z"/>
		</g>
		<g>
			<path class="st8" d="M419,182.9c0,2.4-0.3,4.6-1,6.6s-1.6,3.8-2.8,5.2c-1.2,1.5-2.7,2.6-4.5,3.4c-1.8,0.8-3.8,1.2-6.1,1.2
				c-1.9,0-3.5-0.3-4.9-0.7c-1.4-0.5-2.5-1-3.2-1.4v12.7h-5.8V168c1.3-0.3,3.1-0.7,5.1-1.1c2-0.4,4.4-0.6,7-0.6
				c2.5,0,4.7,0.4,6.6,1.1c2,0.8,3.6,1.9,5,3.3c1.4,1.4,2.5,3.1,3.3,5.2C418.6,178.1,419,180.4,419,182.9z M413,182.9
				c0-3.7-0.9-6.5-2.7-8.5c-1.9-2-4.3-3-7.4-3c-1.7,0-3.1,0.1-4,0.2c-1,0.1-1.7,0.3-2.3,0.4V192c0.7,0.6,1.7,1.1,3,1.7
				c1.3,0.5,2.7,0.8,4.3,0.8c1.7,0,3.1-0.3,4.2-0.9s2.1-1.4,2.9-2.4c0.8-1,1.3-2.2,1.6-3.6C412.9,186,413,184.5,413,182.9z"/>
			<path class="st8" d="M451.2,166.4c0.5,0,1.1,0,1.7,0.1c0.6,0.1,1.3,0.1,1.9,0.3c0.6,0.1,1.1,0.2,1.7,0.3c0.5,0.1,0.9,0.2,1.1,0.3
				l-1,4.9c-0.4-0.2-1.2-0.4-2.2-0.6c-1-0.2-2.4-0.3-4-0.3c-1.1,0-2.1,0.1-3.2,0.3c-1,0.2-1.7,0.4-2,0.4v26.5h-5.8v-30.2
				c1.3-0.5,3.1-1,5-1.3C446.5,166.6,448.7,166.4,451.2,166.4z"/>
			<path class="st8" d="M503.8,182.9c0,2.5-0.4,4.8-1.1,6.8c-0.8,2-1.8,3.8-3.1,5.2c-1.3,1.5-2.9,2.6-4.8,3.4
				c-1.9,0.8-3.8,1.2-6,1.2s-4.2-0.4-6-1.2c-1.9-0.8-3.5-1.9-4.8-3.4c-1.3-1.5-2.4-3.2-3.1-5.2c-0.8-2-1.1-4.3-1.1-6.8
				c0-2.5,0.4-4.7,1.1-6.8c0.8-2,1.8-3.8,3.1-5.2c1.3-1.5,2.9-2.6,4.8-3.4c1.9-0.8,3.8-1.2,6-1.2s4.2,0.4,6,1.2
				c1.9,0.8,3.5,1.9,4.8,3.4c1.3,1.5,2.4,3.2,3.1,5.2C503.4,178.1,503.8,180.4,503.8,182.9z M497.8,182.9c0-3.6-0.8-6.4-2.4-8.5
				c-1.6-2.1-3.8-3.1-6.6-3.1s-5,1-6.6,3.1c-1.6,2.1-2.4,4.9-2.4,8.5c0,3.6,0.8,6.4,2.4,8.5c1.6,2.1,3.8,3.1,6.6,3.1s5-1,6.6-3.1
				C497,189.2,497.8,186.4,497.8,182.9z"/>
			<path class="st8" d="M544.2,195.4c-0.5,0.3-1.5,0.8-2.9,1.2c-1.4,0.5-3.1,0.8-5,0.8s-3.8-0.3-5.4-0.9c-1.7-0.6-3.2-1.5-4.5-2.8
				c-1.3-1.3-2.3-2.9-3-4.8c-0.8-1.9-1.1-4.2-1.1-6.8c0-2.3,0.3-4.4,1-6.3s1.7-3.6,3.1-5c1.3-1.4,2.9-2.5,4.9-3.3
				c1.9-0.8,4.1-1.2,6.5-1.2c2.7,0,5,0.2,7,0.6c2,0.4,3.6,0.8,5,1.1v28.2c0,4.9-1.3,8.4-3.8,10.5c-2.6,2.2-6.4,3.3-11.6,3.3
				c-2,0-3.9-0.2-5.7-0.5c-1.8-0.3-3.3-0.7-4.7-1.1l1-4.9c1.1,0.4,2.6,0.8,4.2,1.2c1.7,0.3,3.4,0.5,5.2,0.5c3.4,0,5.9-0.6,7.3-2
				c1.5-1.3,2.2-3.4,2.2-6.4L544.2,195.4L544.2,195.4z M544.1,172.1c-0.6-0.2-1.3-0.3-2.3-0.4c-1-0.1-2.3-0.2-3.9-0.2
				c-3.1,0-5.4,1-7.1,3s-2.5,4.6-2.5,7.9c0,1.9,0.3,3.4,0.7,4.7c0.4,1.3,1.1,2.4,1.9,3.2c0.8,0.8,1.7,1.5,2.7,1.9
				c1,0.4,2.1,0.6,3.3,0.6c1.5,0,2.9-0.2,4.2-0.6c1.3-0.4,2.3-0.9,3-1.5L544.1,172.1L544.1,172.1z"/>
			<path class="st8" d="M583.9,166.4c0.5,0,1.1,0,1.7,0.1s1.3,0.1,1.9,0.3c0.6,0.1,1.2,0.2,1.7,0.3c0.5,0.1,0.9,0.2,1.1,0.3l-1,4.9
				c-0.4-0.2-1.2-0.4-2.2-0.6c-1-0.2-2.4-0.3-4-0.3c-1.1,0-2.1,0.1-3.2,0.3c-1,0.2-1.7,0.4-2,0.4v26.5h-5.8v-30.2
				c1.3-0.5,3.1-1,5-1.3C579.2,166.6,581.4,166.4,583.9,166.4z"/>
			<path class="st8" d="M618.5,166.2c2.3,0,4.2,0.3,5.8,0.9c1.6,0.6,2.9,1.4,3.8,2.5c1,1.1,1.7,2.4,2,3.8c0.4,1.5,0.6,3.1,0.6,4.9
				v19.7c-0.5,0.1-1.2,0.2-2,0.3c-0.9,0.1-1.9,0.3-3,0.4c-1.1,0.1-2.3,0.3-3.6,0.3c-1.3,0.1-2.6,0.1-3.8,0.1c-1.8,0-3.5-0.2-5-0.6
				c-1.5-0.4-2.8-1-4-1.7c-1.2-0.8-2-1.9-2.6-3.1c-0.6-1.3-0.9-2.9-0.9-4.7c0-1.7,0.4-3.3,1.1-4.5c0.7-1.3,1.7-2.2,2.9-3.1
				c1.2-0.8,2.7-1.3,4.3-1.7c1.7-0.4,3.4-0.6,5.2-0.6c0.6,0,1.2,0,1.8,0.1c0.6,0.1,1.2,0.1,1.7,0.3c0.6,0.1,1,0.2,1.5,0.3
				c0.4,0.1,0.7,0.1,0.8,0.2v-1.6c0-1-0.1-1.9-0.3-2.7s-0.6-1.7-1.1-2.4c-0.5-0.7-1.3-1.3-2.2-1.7c-0.9-0.4-2.1-0.6-3.6-0.6
				c-1.9,0-3.5,0.1-5,0.4c-1.4,0.3-2.5,0.5-3.2,0.8l-0.7-4.7c0.8-0.3,2-0.6,3.7-1C614.6,166.4,616.5,166.2,618.5,166.2z M619,194.5
				c1.3,0,2.6,0,3.6-0.1c1-0.1,1.9-0.2,2.6-0.3v-9.4c-0.4-0.2-1.1-0.4-2-0.5c-0.9-0.1-2-0.2-3.4-0.2c-0.8,0-1.8,0.1-2.7,0.2
				c-1,0.1-1.9,0.4-2.6,0.8c-0.8,0.4-1.5,0.9-2,1.6c-0.5,0.6-0.8,1.5-0.8,2.6c0,2,0.6,3.4,2,4.2C614.9,194.2,616.7,194.5,619,194.5z
				"/>
			<path class="st8" d="M652.6,168c1.3-0.3,3.1-0.6,5.2-1c2.2-0.4,4.7-0.6,7.5-0.6c2,0,3.8,0.3,5.2,0.8c1.4,0.6,2.6,1.3,3.5,2.4
				c0.3-0.2,0.8-0.5,1.3-0.8c0.6-0.4,1.4-0.7,2.3-1.1c0.9-0.3,1.9-0.6,3-0.9c1.1-0.3,2.3-0.4,3.6-0.4c2.5,0,4.5,0.4,6,1.1
				c1.5,0.7,2.8,1.7,3.6,3c0.9,1.3,1.5,2.8,1.8,4.6c0.3,1.8,0.4,3.7,0.4,5.8v17.7h-5.8v-16.5c0-1.9-0.1-3.5-0.3-4.8s-0.5-2.4-1-3.3
				c-0.5-0.9-1.2-1.5-2.1-2c-0.9-0.4-2-0.6-3.5-0.6c-1.9,0-3.5,0.3-4.8,0.8c-1.3,0.5-2.1,1-2.6,1.3c0.3,1,0.6,2.2,0.8,3.5
				c0.2,1.3,0.3,2.6,0.3,4v17.7h-5.8v-16.5c0-1.9-0.1-3.5-0.3-4.8s-0.6-2.4-1.1-3.3c-0.5-0.9-1.2-1.5-2.1-2s-2-0.6-3.4-0.6
				c-0.6,0-1.2,0-1.9,0.1c-0.6,0.1-1.3,0.1-1.9,0.1c-0.6,0.1-1.2,0.1-1.7,0.2c-0.5,0.1-0.8,0.1-1,0.2v26.6h-5.8V168H652.6z"/>
			<path class="st8" d="M728.3,166.2c2.3,0,4.2,0.3,5.8,0.9c1.6,0.6,2.9,1.4,3.8,2.5c1,1.1,1.7,2.4,2,3.8c0.4,1.5,0.6,3.1,0.6,4.9
				v19.7c-0.5,0.1-1.2,0.2-2,0.3c-0.9,0.1-1.9,0.3-3,0.4c-1.1,0.1-2.3,0.3-3.6,0.3c-1.3,0.1-2.6,0.1-3.8,0.1c-1.8,0-3.5-0.2-5-0.6
				c-1.5-0.4-2.8-1-4-1.7c-1.1-0.8-2-1.9-2.6-3.1c-0.6-1.3-0.9-2.9-0.9-4.7c0-1.7,0.4-3.3,1.1-4.5c0.7-1.3,1.7-2.2,2.9-3.1
				c1.2-0.8,2.7-1.3,4.3-1.7c1.7-0.4,3.4-0.6,5.2-0.6c0.6,0,1.2,0,1.8,0.1c0.6,0.1,1.2,0.1,1.7,0.3c0.6,0.1,1,0.2,1.5,0.3
				c0.4,0.1,0.7,0.1,0.8,0.2v-1.6c0-1-0.1-1.9-0.3-2.7s-0.6-1.7-1.1-2.4c-0.5-0.7-1.3-1.3-2.2-1.7c-0.9-0.4-2.1-0.6-3.6-0.6
				c-1.9,0-3.5,0.1-5,0.4c-1.4,0.3-2.5,0.5-3.2,0.8l-0.7-4.7c0.8-0.3,2-0.6,3.7-1C724.4,166.4,726.3,166.2,728.3,166.2z
				 M728.8,194.5c1.3,0,2.6,0,3.6-0.1c1-0.1,1.9-0.2,2.6-0.3v-9.4c-0.4-0.2-1.1-0.4-2-0.5s-2-0.2-3.4-0.2c-0.8,0-1.8,0.1-2.7,0.2
				c-1,0.1-1.9,0.4-2.6,0.8c-0.8,0.4-1.5,0.9-2,1.6c-0.5,0.6-0.8,1.5-0.8,2.6c0,2,0.6,3.4,2,4.2
				C724.8,194.2,726.5,194.5,728.8,194.5z"/>
			<path class="st8" d="M774.3,166.4c0.5,0,1.1,0,1.7,0.1c0.6,0.1,1.3,0.1,1.9,0.3c0.6,0.1,1.2,0.2,1.7,0.3c0.5,0.1,0.9,0.2,1.2,0.3
				l-1,4.9c-0.4-0.2-1.2-0.4-2.2-0.6c-1-0.2-2.4-0.3-4-0.3c-1.1,0-2.1,0.1-3.2,0.3c-1,0.2-1.7,0.4-2,0.4v26.5h-5.8v-30.2
				c1.3-0.5,3.1-1,5-1.3C769.5,166.6,771.8,166.4,774.3,166.4z"/>
			<path class="st8" d="M801.9,195.4c0,1.1-0.4,2-1.1,2.9s-1.7,1.2-3,1.2s-2.3-0.4-3-1.2c-0.8-0.8-1.1-1.8-1.1-2.9s0.4-2,1.1-2.9
				c0.8-0.8,1.7-1.2,3-1.2s2.3,0.4,3,1.2C801.6,193.3,801.9,194.2,801.9,195.4z"/>
			<path class="st8" d="M874.2,167.1c-1.6,5.9-3.5,11.6-5.6,17s-4.2,10.3-6.3,14.6h-5.2c-2-4.3-4.1-9.1-6.3-14.6s-4-11.1-5.6-17h6.1
				c0.5,2,1.1,4.1,1.7,6.3c0.7,2.2,1.4,4.5,2.2,6.7c0.8,2.2,1.5,4.3,2.3,6.4c0.8,2,1.5,3.9,2.2,5.5c0.7-1.6,1.4-3.4,2.2-5.5
				c0.8-2,1.5-4.2,2.3-6.4c0.8-2.2,1.5-4.4,2.2-6.7c0.7-2.2,1.3-4.3,1.7-6.3H874.2z"/>
			<path class="st8" d="M895.2,161.4c-1,0-1.9-0.3-2.6-1c-0.7-0.6-1.1-1.6-1.1-2.7c0-1.2,0.4-2,1.1-2.7c0.7-0.6,1.6-1,2.6-1
				c1,0,1.9,0.3,2.6,1c0.7,0.6,1.1,1.6,1.1,2.7c0,1.1-0.4,2-1.1,2.7C897.1,161,896.3,161.4,895.2,161.4z M898.2,198.6h-5.8v-31.6
				h5.8V198.6z"/>
			<path class="st8" d="M930.7,166.2c2.3,0,4.2,0.3,5.8,0.9c1.6,0.6,2.9,1.4,3.8,2.5c1,1.1,1.7,2.4,2,3.8c0.4,1.5,0.6,3.1,0.6,4.9
				v19.7c-0.5,0.1-1.2,0.2-2,0.3c-0.9,0.1-1.9,0.3-3,0.4c-1.1,0.1-2.3,0.3-3.6,0.3c-1.3,0.1-2.6,0.1-3.8,0.1c-1.8,0-3.5-0.2-5-0.6
				c-1.5-0.4-2.8-1-4-1.7c-1.1-0.8-2-1.9-2.6-3.1c-0.6-1.3-0.9-2.9-0.9-4.7c0-1.7,0.4-3.3,1.1-4.5c0.7-1.3,1.7-2.2,2.9-3.1
				c1.2-0.8,2.7-1.3,4.3-1.7c1.7-0.4,3.4-0.6,5.2-0.6c0.6,0,1.2,0,1.8,0.1s1.2,0.1,1.7,0.3c0.6,0.1,1,0.2,1.5,0.3
				c0.4,0.1,0.7,0.1,0.8,0.2v-1.6c0-1-0.1-1.9-0.3-2.7c-0.2-0.9-0.6-1.7-1.1-2.4c-0.5-0.7-1.3-1.3-2.2-1.7c-0.9-0.4-2.1-0.6-3.6-0.6
				c-1.9,0-3.5,0.1-5,0.4c-1.4,0.3-2.5,0.5-3.2,0.8l-0.7-4.7c0.8-0.3,2-0.6,3.7-1C926.8,166.4,928.6,166.2,930.7,166.2z
				 M931.2,194.5c1.3,0,2.6,0,3.6-0.1c1-0.1,1.9-0.2,2.6-0.3v-9.4c-0.4-0.2-1.1-0.4-2-0.5c-0.9-0.1-2-0.2-3.4-0.2
				c-0.8,0-1.8,0.1-2.7,0.2c-1,0.1-1.9,0.4-2.6,0.8c-0.8,0.4-1.5,0.9-2,1.6c-0.5,0.6-0.8,1.5-0.8,2.6c0,2,0.6,3.4,2,4.2
				C927.1,194.2,928.9,194.5,931.2,194.5z"/>
			<path class="st8" d="M959.5,209.9c-0.5,0-1.2-0.1-1.9-0.2c-0.8-0.1-1.4-0.3-2-0.5l0.8-4.6c0.4,0.1,0.9,0.2,1.4,0.3
				c0.5,0.1,1,0.1,1.5,0.1c2,0,3.4-0.6,4.2-1.8c0.8-1.2,1.3-2.9,1.3-5.2v-31h5.8v31c0,4-1,7-2.8,9
				C965.8,209,963.1,209.9,959.5,209.9z M967.6,161.4c-1,0-1.9-0.3-2.6-1c-0.7-0.6-1.1-1.6-1.1-2.7c0-1.2,0.4-2,1.1-2.7
				c0.7-0.6,1.6-1,2.6-1s1.9,0.3,2.6,1c0.7,0.6,1.1,1.6,1.1,2.7c0,1.1-0.4,2-1.1,2.7S968.6,161.4,967.6,161.4z"/>
			<path class="st8" d="M1003.1,166.2c2.3,0,4.2,0.3,5.8,0.9c1.6,0.6,2.9,1.4,3.8,2.5c1,1.1,1.7,2.4,2,3.8c0.4,1.5,0.6,3.1,0.6,4.9
				v19.7c-0.5,0.1-1.2,0.2-2,0.3c-0.9,0.1-1.9,0.3-3,0.4c-1.1,0.1-2.3,0.3-3.6,0.3c-1.3,0.1-2.6,0.1-3.8,0.1c-1.8,0-3.5-0.2-5-0.6
				c-1.5-0.4-2.8-1-4-1.7c-1.1-0.8-2-1.9-2.6-3.1c-0.6-1.3-0.9-2.9-0.9-4.7c0-1.7,0.4-3.3,1.1-4.5c0.7-1.3,1.7-2.2,2.9-3.1
				c1.2-0.8,2.7-1.3,4.3-1.7c1.7-0.4,3.4-0.6,5.2-0.6c0.6,0,1.2,0,1.8,0.1c0.6,0.1,1.2,0.1,1.7,0.3c0.6,0.1,1,0.2,1.5,0.3
				c0.4,0.1,0.7,0.1,0.8,0.2v-1.6c0-1-0.1-1.9-0.3-2.7c-0.2-0.9-0.6-1.7-1.1-2.4c-0.5-0.7-1.3-1.3-2.2-1.7c-0.9-0.4-2.1-0.6-3.6-0.6
				c-1.9,0-3.5,0.1-5,0.4c-1.4,0.3-2.5,0.5-3.2,0.8l-0.7-4.7c0.8-0.3,2-0.6,3.7-1C999.2,166.4,1001,166.2,1003.1,166.2z
				 M1003.5,194.5c1.3,0,2.6,0,3.6-0.1c1-0.1,1.9-0.2,2.6-0.3v-9.4c-0.4-0.2-1.1-0.4-2-0.5s-2-0.2-3.4-0.2c-0.8,0-1.8,0.1-2.7,0.2
				c-1,0.1-1.9,0.4-2.6,0.8c-0.8,0.4-1.5,0.9-2,1.6c-0.5,0.6-0.8,1.5-0.8,2.6c0,2,0.6,3.4,2,4.2
				C999.5,194.2,1001.3,194.5,1003.5,194.5z"/>
			<path class="st8" d="M1049,166.4c0.5,0,1.1,0,1.7,0.1s1.3,0.1,1.9,0.3c0.6,0.1,1.2,0.2,1.7,0.3c0.5,0.1,0.9,0.2,1.2,0.3l-1,4.9
				c-0.4-0.2-1.2-0.4-2.2-0.6c-1-0.2-2.4-0.3-4-0.3c-1.1,0-2.1,0.1-3.2,0.3c-1,0.2-1.7,0.4-2,0.4v26.5h-5.8v-30.2
				c1.3-0.5,3.1-1,5-1.3C1044.2,166.6,1046.5,166.4,1049,166.4z"/>
			<path class="st8" d="M1076.7,195.4c0,1.1-0.4,2-1.1,2.9s-1.7,1.2-3,1.2c-1.3,0-2.3-0.4-3-1.2c-0.8-0.8-1.1-1.8-1.1-2.9
				s0.4-2,1.1-2.9c0.8-0.8,1.7-1.2,3-1.2c1.3,0,2.3,0.4,3,1.2C1076.3,193.3,1076.7,194.2,1076.7,195.4z"/>
		</g>
		<g id="Guias_1_" class="st0">
			<rect x="22.2" y="83.6" class="st16" width="41" height="41"/>
			<rect x="22.2" y="124.6" class="st16" width="41" height="41"/>
			<rect x="22.2" y="165.6" class="st16" width="41" height="41"/>
			<rect x="22.2" y="226.6" class="st16" width="41" height="41"/>
		</g>
		<g class="st0">
			
				<image style="display:inline;overflow:visible;enable-background:new    ;" width="4133" height="4131" xlink:href="52627A7D.png"  transform="matrix(0.4797 0 0 0.4797 -426.9825 -886.4828)">
			</image>
			<g class="st1">
				<g>
					<rect x="-313.3" y="-773.3" class="st7" width="767.6" height="767.6"/>
					<path class="st8" d="M1441.2-5.7v219.3c0,423.9-343.7,767.6-767.6,767.6h-986.9V213.6h904.7c45.4,0,82.2-36.8,82.2-82.2v-904.7
						l0,0C1097.6-773.3,1441.2-429.6,1441.2-5.7z"/>
				</g>
			</g>
		</g>
	</g>
</g>
</svg>
